HIERARCHY
ROOT root
{
	OFFSET 0.000000 0.000000 0.000000
	CHANNELS 6 Xposition Yposition Zposition Zrotation Yrotation Xrotation
	JOINT lhip
	{
		OFFSET 0.058581 -0.082280 -0.017664
		CHANNELS 3 Zrotation Yrotation Xrotation
		JOINT lknee
		{
			OFFSET 0.043451 -0.386469 0.008037
			CHANNELS 3 Zrotation Yrotation Xrotation
			JOINT lankle
			{
				OFFSET -0.014790 -0.426874 -0.037428
				CHANNELS 3 Zrotation Yrotation Xrotation
				JOINT ltoe
				{
					OFFSET 0.041054 -0.060286 0.122042
					CHANNELS 3 Zrotation Yrotation Xrotation
					End Site
					{
						OFFSET 0.000000 0.000000 0.000000
					}
				}
			}
		}
	}
	JOINT rhip
	{
		OFFSET -0.060310 -0.090513 -0.013543
		CHANNELS 3 Zrotation Yrotation Xrotation
		JOINT rknee
		{
			OFFSET -0.043257 -0.383688 -0.004843
			CHANNELS 3 Zrotation Yrotation Xrotation
			JOINT rankle
			{
				OFFSET 0.019056 -0.420046 -0.034562
				CHANNELS 3 Zrotation Yrotation Xrotation
				JOINT rtoe
				{
					OFFSET -0.034840 -0.062106 0.130323
					CHANNELS 3 Zrotation Yrotation Xrotation
					End Site
					{
						OFFSET 0.000000 0.000000 0.000000
					}
				}
			}
		}
	}
	JOINT lowerback
	{
		OFFSET 0.004439 0.124404 -0.038385
		CHANNELS 3 Zrotation Yrotation Xrotation
		JOINT upperback
		{
			OFFSET 0.004488 0.137956 0.026820
			CHANNELS 3 Zrotation Yrotation Xrotation
			JOINT chest
			{
				OFFSET -0.002265 0.056032 0.002855
				CHANNELS 3 Zrotation Yrotation Xrotation
				JOINT lowerneck
				{
					OFFSET -0.013390 0.211636 -0.033468
					CHANNELS 3 Zrotation Yrotation Xrotation
					JOINT upperneck
					{
						OFFSET 0.010113 0.088937 0.050410
						CHANNELS 3 Zrotation Yrotation Xrotation
						End Site
						{
							OFFSET 0.000000 0.000000 0.000000
						}
					}
				}
				JOINT lclavicle
				{
					OFFSET 0.071702 0.114000 -0.018898
					CHANNELS 3 Zrotation Yrotation Xrotation
					JOINT lshoulder
					{
						OFFSET 0.122921 0.045205 -0.019046
						CHANNELS 3 Zrotation Yrotation Xrotation
						JOINT lelbow
						{
							OFFSET 0.255332 -0.015649 -0.022946
							CHANNELS 3 Zrotation Yrotation Xrotation
							JOINT lwrist
							{
								OFFSET 0.265709 0.012698 -0.007375
								CHANNELS 3 Zrotation Yrotation Xrotation
								End Site
								{
									OFFSET 0.000000 0.000000 0.000000
								}
							}
						}
					}
				}
				JOINT rclavicle
				{
					OFFSET -0.082954 0.112472 -0.023707
					CHANNELS 3 Zrotation Yrotation Xrotation
					JOINT rshoulder
					{
						OFFSET -0.113228 0.046853 -0.008472
						CHANNELS 3 Zrotation Yrotation Xrotation
						JOINT relbow
						{
							OFFSET -0.260127 -0.014369 -0.031269
							CHANNELS 3 Zrotation Yrotation Xrotation
							JOINT rwrist
							{
								OFFSET -0.269108 0.006794 -0.006027
								CHANNELS 3 Zrotation Yrotation Xrotation
								End Site
								{
									OFFSET 0.000000 0.000000 0.000000
								}
							}
						}
					}
				}
			}
		}
	}
}
MOTION
Frames: 8
Frame Time: 0.033333
-0.357866 0.244930 1.012093 85.218946 1.041019 89.247311 0.415623 3.053313 6.263395 -2.356289 -5.142152 0.953262 1.932008 10.493320 -9.984873 0.000000 -0.000000 0.000000 -0.861824 -2.927487 -1.006345 0.541597 -0.900434 10.313912 4.127751 -7.208349 -6.975573 0.000000 -0.000000 0.000000 -1.203726 -0.304215 2.120901 0.424864 -1.985058 -1.521721 -0.518136 -1.008232 1.528962 1.124231 -6.459853 -0.942135 -0.515460 -12.108552 11.126383 -24.257377 8.322844 -1.145258 -57.664149 -6.979369 9.616259 3.609260 -23.283966 10.628088 -2.992687 -5.846819 -5.600466 25.898820 -3.668155 -3.491064 59.172759 3.592335 15.331640 -8.453057 21.026574 3.757616 7.656056 2.487881 -2.969905 
-0.357986 0.244826 1.011853 85.251640 1.049994 89.329585 0.411888 2.913019 6.170553 -2.429084 -4.935255 0.984287 1.961458 10.653491 -9.940350 0.000000 -0.000000 0.000000 -0.776102 -2.515639 -0.923013 0.369238 -0.391247 10.239442 4.254726 -7.184723 -7.514458 0.000000 -0.000000 0.000000 -1.194578 -0.383753 1.858459 0.446106 -2.017892 -1.504506 -0.573816 -1.185674 1.637153 1.336187 -6.213121 -1.010329 -0.775749 -12.030328 11.571773 -24.036687 8.279455 -0.679310 -57.852257 -7.094776 9.723103 4.043893 -23.579511 10.680903 -3.139600 -6.046065 -5.795461 25.558907 -3.314442 -2.951610 59.541088 3.585013 15.755141 -8.498219 21.287445 3.627420 7.295308 3.226035 -3.291202 
-0.357810 0.244796 1.011642 85.185083 1.103221 89.323508 0.480290 2.995177 6.121268 -2.520800 -4.735774 1.067627 2.056070 10.706270 -9.892380 0.000000 -0.000000 0.000000 -0.730586 -2.437147 -0.903085 0.381512 -0.508928 10.193701 4.086084 -7.142638 -7.408910 0.000000 -0.000000 0.000000 -1.183663 -0.422617 1.643342 0.512646 -2.080491 -1.468222 -0.513752 -1.050810 1.570194 1.280267 -6.345675 -0.341292 -0.754412 -12.008278 11.507740 -23.858800 7.943237 -0.239703 -58.159153 -7.212533 9.703487 4.268407 -23.650816 10.306408 -2.846268 -5.754170 -6.065070 25.352447 -3.191429 -2.585982 59.647098 3.432815 15.717038 -8.639809 21.297684 3.757181 7.242140 3.292127 -3.523665 
-0.357903 0.245131 1.011655 85.120572 1.052246 89.414929 0.421629 3.071931 5.938991 -2.725525 -4.292894 1.191814 2.276700 10.804080 -9.793433 0.000000 -0.000000 0.000000 -0.812393 -2.444670 -0.991257 0.345535 -0.300263 10.189577 4.228823 -7.097936 -7.415831 0.000000 -0.000000 0.000000 -1.156155 -0.606038 1.723746 0.530730 -2.213791 -1.731933 -0.569483 -0.984312 1.577744 1.320510 -6.254864 -0.389213 -0.887268 -11.866771 11.718340 -23.921930 8.111176 -0.286275 -58.066472 -7.239374 9.714305 4.093357 -23.793996 10.521889 -2.893481 -5.873648 -6.181146 25.476830 -3.331996 -2.604070 59.461342 3.409238 15.794722 -8.605668 21.323655 3.802353 7.218297 3.119916 -3.414133 
-0.357673 0.245436 1.011691 85.005751 1.080086 89.355964 0.405627 3.058602 6.086629 -2.652960 -4.445976 1.046873 2.383677 10.827130 -9.694608 0.000000 -0.000000 0.000000 -0.832363 -2.604803 -1.028572 0.472537 -0.596330 10.310044 4.153441 -7.190689 -7.299543 0.000000 -0.000000 0.000000 -1.059346 -0.667040 1.779455 0.515789 -2.237708 -1.759942 -0.569421 -1.002622 1.575038 1.263073 -6.150973 -0.344226 -0.863313 -11.667664 11.715142 -23.901044 8.114393 -0.209909 -58.119300 -7.267323 9.694598 4.060696 -23.853585 10.618921 -2.902082 -5.825643 -6.267968 25.445854 -3.344486 -2.596205 59.417912 3.425408 15.713465 -8.565723 21.194192 3.808589 7.258791 3.102254 -3.429516 
-0.358073 0.245920 1.011762 84.873138 1.118178 89.421169 0.394515 3.125882 5.896633 -2.735681 -4.096211 1.280222 2.348146 10.891753 -9.795078 0.000000 -0.000000 0.000000 -0.799303 -2.544011 -1.154592 0.332588 -0.171583 10.378945 4.279104 -6.881802 -7.450857 0.000000 -0.000000 0.000000 -1.010995 -0.704027 1.772864 0.569953 -2.292786 -1.844615 -0.574237 -1.054415 1.579378 1.303056 -5.992525 -0.283257 -0.881305 -11.497508 11.832081 -23.894990 8.109275 -0.167386 -58.112081 -7.191031 9.774340 3.989747 -24.204128 10.630313 -2.665410 -5.854836 -6.173134 25.438454 -3.434134 -2.613184 59.265242 3.366377 15.722455 -8.534016 21.230668 3.816619 7.165505 3.261978 -3.356459 
-0.357988 0.246411 1.011944 84.646375 1.146470 89.372339 0.406577 3.312713 5.955716 -2.815847 -3.872067 1.262764 2.351919 10.918118 -9.746937 0.000000 -0.000000 0.000000 -0.853163 -2.701536 -1.228740 0.460653 -0.464843 10.504102 4.240999 -6.892003 -7.338784 0.000000 -0.000000 0.000000 -0.984696 -0.725840 1.824517 0.597049 -2.314659 -1.906465 -0.510988 -1.090080 1.530066 1.430239 -5.756076 -0.014682 -1.112814 -10.954348 11.956064 -23.951313 8.121767 -0.195731 -58.150667 -7.207186 9.723034 3.903774 -24.027035 10.783014 -2.767088 -5.821779 -6.091734 25.375327 -3.479278 -2.496752 59.222626 3.424889 15.686907 -8.675030 20.988087 3.628684 7.011140 3.254725 -3.277510 
-0.358453 0.247027 1.011841 84.484807 1.200401 89.398928 0.399394 3.253486 5.897783 -2.825208 -3.701499 1.294042 2.446776 10.998717 -9.731554 0.000000 -0.000000 0.000000 -0.837167 -2.603748 -1.264296 0.468635 -0.327953 10.387343 4.238832 -6.870886 -7.334634 0.000000 -0.000000 0.000000 -0.962399 -0.770172 1.757479 0.655520 -2.352740 -1.914133 -0.477674 -1.133008 1.543784 1.432125 -4.839035 0.396168 -1.280462 -9.897518 12.516046 -23.928943 8.057398 -0.090277 -58.258608 -7.289250 9.771376 3.972104 -23.989374 10.758801 -2.761994 -5.845972 -6.305965 25.442534 -3.581355 -2.343090 59.136107 3.647997 15.790618 -8.902382 20.905012 3.657206 6.740500 3.061713 -3.204337 
